<svg xmlns="http://www.w3.org/2000/svg" xmlns:xlink="http://www.w3.org/1999/xlink" width="389" height="539" viewBox="0 0 389 539">
    <defs>
        <path id="a" d="M0 .287h266.873v263.657H0z"/>
        <path id="c" d="M0 .457h266.873v264.17H0z"/>
    </defs>
    <g fill="none" fill-rule="evenodd">
        <path fill="#5B00FF" d="M389 138c0 72.902-58.875 132-131.5 132S126 210.902 126 138 184.875 6 257.5 6 389 65.098 389 138"/>
        <g>
            <mask id="b" fill="#fff">
                <use xlink:href="#a"/>
            </mask>
            <path fill="#FF0094" d="M56.957 134.358c4.564 0 9.608.644 15.085 2.257 10.507 3.094 21.206 9.284 32.704 18.923 7.127 5.974 17.248 13.112 29.793 20.268 26.407-18.82 49.491-44.481 68.993-76.743-3.932-7.847-9.616-17.498-15.887-23.59-20.762-20.176-43.99-23.639-59.801-22.976-20.387.844-40.478 9.323-51.186 21.603-7.244 8.309-9.708 16.759-7.753 26.593 1.754 8.82 6.412 15.338 6.459 15.403l-.193-.257-24.773 18.973a47.264 47.264 0 0 1 6.559-.454m2.252 52.981c-1.733 3.338-4.228 10.319-5.783 22.474 7.88-1.276 17.226-3.359 27.516-6.737a203.916 203.916 0 0 1-9.612-7.558c-5.831-4.888-9.806-7.145-12.121-8.179m-27.606 76.605c-4.078 0-6.696-.179-7.594-.252L1.081 261.83l-.975-23.016c-.032-.741-.737-18.364 1.969-37.782 3.95-28.326 13.484-47.91 28.38-58.351-13.644-21.397-26.467-64.507 6.99-102.876C57.696 16.583 90.686 1.853 125.694.404c36.766-1.518 71.652 11.848 98.206 37.65 19.985 19.42 31.876 49.91 33.167 53.322l4.274 11.308-5.859 10.572c-20.658 37.282-44.059 65.177-67.37 86.053 23.487 7.522 50.08 12.597 78.515 12.48l.247 52.138c-.455.002-.911.003-1.367.003-39.391 0-79.083-8.078-118.002-24.017a333.257 333.257 0 0 1-10.47-4.5 244.94 244.94 0 0 1-28.923 13.316c-34.865 13.347-63.318 15.215-76.508 15.215" mask="url(#b)"/>
        </g>
        <g transform="translate(0 269)">
            <mask id="d" fill="#fff">
                <use xlink:href="#c"/>
            </mask>
            <path fill="#5B00FF" d="M56.957 134.79c4.564 0 9.608.644 15.085 2.26 10.507 3.1 21.206 9.302 32.704 18.96 7.127 5.986 17.248 13.138 29.793 20.307 26.407-18.856 49.491-44.567 68.993-76.892-3.932-7.862-9.616-17.532-15.887-23.637-20.762-20.214-43.99-23.684-59.801-23.02-20.387.847-40.478 9.342-51.186 21.646-7.244 8.324-9.708 16.79-7.753 26.645 1.754 8.836 6.412 15.367 6.459 15.432l-.193-.257-24.773 19.01a47.173 47.173 0 0 1 6.559-.455m2.252 53.085c-1.733 3.343-4.228 10.338-5.783 22.517 7.88-1.279 17.226-3.366 27.516-6.75a203.975 203.975 0 0 1-9.612-7.573c-5.831-4.898-9.806-7.159-12.121-8.194m-27.606 76.752c-4.078 0-6.696-.178-7.594-.25l-22.928-1.867-.975-23.061c-.032-.742-.737-18.4 1.969-37.855 3.95-28.38 13.484-48.004 28.38-58.465-13.644-21.439-26.467-64.632 6.99-103.076C57.696 16.785 90.686 2.026 125.694.574c36.766-1.52 71.652 11.87 98.206 37.723 19.985 19.457 31.876 50.007 33.167 53.427l4.274 11.329-5.859 10.593c-20.658 37.354-44.059 65.304-67.37 86.22 23.487 7.537 50.08 12.623 78.515 12.505l.247 52.238c-.455.003-.911.004-1.367.004-39.391 0-79.083-8.093-118.002-24.064a332.922 332.922 0 0 1-10.47-4.508 244.713 244.713 0 0 1-28.923 13.341c-34.865 13.374-63.318 15.244-76.508 15.244" mask="url(#d)"/>
        </g>
        <path fill="#FF0094" d="M389 407c0 72.902-58.875 132-131.5 132S126 479.902 126 407s58.875-132 131.5-132S389 334.098 389 407"/>
    </g>
</svg>
