<svg xmlns="http://www.w3.org/2000/svg" width="314" height="82" viewBox="0 0 314 82">
    <g fill="none" fill-rule="evenodd">
        <path fill="#FFF" fill-rule="nonzero" d="M8.2 23c6.3 0 9.975-3.75 9.975-8.8v-.05c0-5.05-3.625-8.65-9.875-8.65H1.55V23H8.2zm.175-4.3H6.4V9.8h1.975c2.9 0 4.825 1.625 4.825 4.425v.05c0 2.825-1.925 4.425-4.825 4.425zm15.9 4.6c1.775 0 3.05-.675 3.975-1.7V23h4.7v-7.775c0-1.9-.425-3.3-1.45-4.3-1.075-1.075-2.725-1.65-5.15-1.65-2.325 0-3.95.425-5.475 1.05l.975 3.35c1.2-.475 2.3-.75 3.725-.75 1.825 0 2.7.8 2.7 2.2v.225c-.775-.275-2-.525-3.25-.525-3.175 0-5.3 1.45-5.3 4.25v.05c0 2.7 1.975 4.175 4.55 4.175zm1.7-2.975c-.975 0-1.675-.55-1.675-1.475v-.05c0-1 .8-1.675 2.175-1.675.7 0 1.375.15 1.85.35v.625c0 1.35-.975 2.225-2.35 2.225zm16.1 3c2.7 0 4.575-1.1 5.875-2.75L45.325 18.4c-.975.95-1.875 1.375-3 1.375-1.475 0-2.55-.75-2.925-2.225h9.05c.025-.325.025-.675.025-.975 0-3.975-2.15-7.4-6.825-7.4-4 0-6.825 3.125-6.825 7.075v.05c0 4.2 3 7.025 7.25 7.025zm1.95-8.2h-4.7c.25-1.475 1.1-2.45 2.35-2.45 1.3 0 2.175.95 2.35 2.45zM6.4 50v-6.65h6.225V50h4.85V32.5h-4.85v6.55H6.4V32.5H1.55V50H6.4zm21.125.1l2.25-7.025 2.2 7.025h4.1l4.175-13.625h-4.575l-1.825 6.85-2.1-6.9h-3.925l-2.075 6.85-1.775-6.8h-4.65L23.45 50.1h4.075zm18.175.2c1.775 0 3.05-.675 3.975-1.7V50h4.7v-7.775c0-1.9-.425-3.3-1.45-4.3-1.075-1.075-2.725-1.65-5.15-1.65-2.325 0-3.95.425-5.475 1.05l.975 3.35c1.2-.475 2.3-.75 3.725-.75 1.825 0 2.7.8 2.7 2.2v.225c-.775-.275-2-.525-3.25-.525-3.175 0-5.3 1.45-5.3 4.25v.05c0 2.7 1.975 4.175 4.55 4.175zm1.7-2.975c-.975 0-1.675-.55-1.675-1.475v-.05c0-1 .8-1.675 2.175-1.675.7 0 1.375.15 1.85.35v.625c0 1.35-.975 2.225-2.35 2.225zM61.55 50v-7.325c0-1.475.85-2.275 2-2.275 1.125 0 1.9.8 1.9 2.275V50h4.75v-8.85c0-3.075-1.725-4.975-4.6-4.975-1.925 0-3.175 1.075-4.05 2.2v-1.9H56.8V50h4.75zM6.25 77.3c2 0 3.65-.625 4.8-1.775 1.175-1.175 1.725-2.725 1.725-4.925V59.5H7.95v11.075c0 1.625-.775 2.45-2 2.45-1.075 0-1.875-.6-2.725-1.625L.1 74.35c1.225 1.675 3.1 2.95 6.15 2.95zm13 0c1.775 0 3.05-.675 3.975-1.7V77h4.7v-7.775c0-1.9-.425-3.3-1.45-4.3-1.075-1.075-2.725-1.65-5.15-1.65-2.325 0-3.95.425-5.475 1.05l.975 3.35c1.2-.475 2.3-.75 3.725-.75 1.825 0 2.7.8 2.7 2.2v.225c-.775-.275-2-.525-3.25-.525-3.175 0-5.3 1.45-5.3 4.25v.05c0 2.7 1.975 4.175 4.55 4.175zm1.7-2.975c-.975 0-1.675-.55-1.675-1.475v-.05c0-1 .8-1.675 2.175-1.675.7 0 1.375.15 1.85.35v.625c0 1.35-.975 2.225-2.35 2.225zM35.1 77v-7.325c0-1.475.85-2.275 2-2.275 1.125 0 1.9.8 1.9 2.275V77h4.75v-8.85c0-3.075-1.725-4.975-4.6-4.975-1.925 0-3.175 1.075-4.05 2.2v-1.9h-4.75V77h4.75zm17.75 4.05c2.825 0 4.725-.675 5.95-1.9 1.2-1.2 1.75-2.925 1.75-5.4V63.475H55.8v1.6c-1.025-1.075-2.225-1.9-4.25-1.9-3.125 0-5.85 2.4-5.85 6.3v.05c0 3.875 2.675 6.275 6 6.275 1.975 0 3.225-.925 4.175-2.025v.525c0 2.15-1.175 3.325-3.55 3.325-1.825 0-3.275-.475-4.725-1.275l-1.525 3.15c1.95 1 4.15 1.55 6.775 1.55zm.275-8.9c-1.625 0-2.775-1.1-2.775-2.6v-.05c0-1.5 1.15-2.625 2.775-2.625 1.6 0 2.75 1.1 2.75 2.6v.05c0 1.5-1.15 2.625-2.75 2.625zM118.675 23V9.75h5.25V5.5h-15.35v4.25h5.25V23h4.85zm11.85 0v-7.325c0-1.475.85-2.275 2-2.275 1.125 0 1.9.8 1.9 2.275V23h4.75v-8.85c0-3.075-1.725-4.975-4.6-4.975-1.925 0-3.175 1.025-4.05 2.15V4.75h-4.75V23h4.75zm17.8.325c2.7 0 4.575-1.1 5.875-2.75l-2.625-2.175c-.975.95-1.875 1.375-3 1.375-1.475 0-2.55-.75-2.925-2.225h9.05c.025-.325.025-.675.025-.975 0-3.975-2.15-7.4-6.825-7.4-4 0-6.825 3.125-6.825 7.075v.05c0 4.2 3 7.025 7.25 7.025zm1.95-8.2h-4.7c.25-1.475 1.1-2.45 2.35-2.45 1.3 0 2.175.95 2.35 2.45zM168.8 23v-6.25h8.275v-4.025H168.8V9.75h9.15V5.5h-14V23h4.85zm16.025-14.75v-3.5h-4.95v3.5h4.95zm-.1 14.75V9.475h-4.75V23h4.75zm7.4 0v-4.2c0-3.125 1.4-4.55 3.875-4.55h.4v-5c-2.25-.1-3.5 1.1-4.275 2.95V9.475h-4.75V23h4.75zm11.325.3c3.3 0 5.525-1.55 5.525-4.525v-.05c0-2.625-2.125-3.55-4.8-4.3-1.425-.425-2.2-.675-2.2-1.2v-.05c0-.375.375-.65 1.1-.65 1.075 0 2.6.475 4 1.25l1.625-3c-1.55-1-3.6-1.575-5.575-1.575-3.125 0-5.425 1.6-5.425 4.475v.05c0 2.725 2.125 3.625 4.8 4.325 1.425.4 2.175.625 2.175 1.15v.05c0 .475-.375.725-1.2.725-1.4 0-3.1-.525-4.65-1.55L197.05 21.3c1.875 1.35 4.125 2 6.4 2zm12.85-.025c1.325 0 2.45-.3 3.3-.775v-3.725c-.575.275-1.175.45-1.8.45-.875 0-1.3-.4-1.3-1.35V13.3h3.15V9.475h-3.15V6.05h-4.75v3.425h-1.6V13.3h1.6v5.5c0 3.225 1.7 4.475 4.55 4.475zM114.35 50v-9.6l7.475 9.6h4.25V32.5h-4.8v9.25l-7.2-9.25h-4.525V50h4.8zm21.25.325c2.7 0 4.575-1.1 5.875-2.75L138.85 45.4c-.975.95-1.875 1.375-3 1.375-1.475 0-2.55-.75-2.925-2.225h9.05c.025-.325.025-.675.025-.975 0-3.975-2.15-7.4-6.825-7.4-4 0-6.825 3.125-6.825 7.075v.05c0 4.2 3 7.025 7.25 7.025zm1.95-8.2h-4.7c.25-1.475 1.1-2.45 2.35-2.45 1.3 0 2.175.95 2.35 2.45zm13.7 7.975l2.25-7.025 2.2 7.025h4.1l4.175-13.625H159.4l-1.825 6.85-2.1-6.9h-3.925l-2.075 6.85-1.775-6.8h-4.65l4.125 13.625h4.075zm31.425-.1v-6.625l6.65-10.875H183.9l-3.625 6.375-3.6-6.375h-5.525l6.65 10.95V50h4.875zm14.575.325c2.7 0 4.575-1.1 5.875-2.75L200.5 45.4c-.975.95-1.875 1.375-3 1.375-1.475 0-2.55-.75-2.925-2.225h9.05c.025-.325.025-.675.025-.975 0-3.975-2.15-7.4-6.825-7.4-4 0-6.825 3.125-6.825 7.075v.05c0 4.2 3 7.025 7.25 7.025zm1.95-8.2h-4.7c.25-1.475 1.1-2.45 2.35-2.45 1.3 0 2.175.95 2.35 2.45zm10.35 8.175c1.775 0 3.05-.675 3.975-1.7V50h4.7v-7.775c0-1.9-.425-3.3-1.45-4.3-1.075-1.075-2.725-1.65-5.15-1.65-2.325 0-3.95.425-5.475 1.05l.975 3.35c1.2-.475 2.3-.75 3.725-.75 1.825 0 2.7.8 2.7 2.2v.225c-.775-.275-2-.525-3.25-.525-3.175 0-5.3 1.45-5.3 4.25v.05c0 2.7 1.975 4.175 4.55 4.175zm1.7-2.975c-.975 0-1.675-.55-1.675-1.475v-.05c0-1 .8-1.675 2.175-1.675.7 0 1.375.15 1.85.35v.625c0 1.35-.975 2.225-2.35 2.225zM225.4 50v-4.2c0-3.125 1.4-4.55 3.875-4.55h.4v-5c-2.25-.1-3.5 1.1-4.275 2.95v-2.725h-4.75V50h4.75zm18 0v-5h2.4c4.35 0 7.525-2.175 7.525-6.3v-.05c0-3.875-2.85-6.15-7.275-6.15h-7.5V50h4.85zm2.3-8.8h-2.3v-4.625h2.275c1.75 0 2.8.8 2.8 2.3v.05c0 1.375-1.05 2.275-2.775 2.275zm13.275 9.1c1.775 0 3.05-.675 3.975-1.7V50h4.7v-7.775c0-1.9-.425-3.3-1.45-4.3-1.075-1.075-2.725-1.65-5.15-1.65-2.325 0-3.95.425-5.475 1.05l.975 3.35c1.2-.475 2.3-.75 3.725-.75 1.825 0 2.7.8 2.7 2.2v.225c-.775-.275-2-.525-3.25-.525-3.175 0-5.3 1.45-5.3 4.25v.05c0 2.7 1.975 4.175 4.55 4.175zm1.7-2.975c-.975 0-1.675-.55-1.675-1.475v-.05c0-1 .8-1.675 2.175-1.675.7 0 1.375.15 1.85.35v.625c0 1.35-.975 2.225-2.35 2.225zM274.825 50v-4.2c0-3.125 1.4-4.55 3.875-4.55h.4v-5c-2.25-.1-3.5 1.1-4.275 2.95v-2.725h-4.75V50h4.75zm11.325.275c1.325 0 2.45-.3 3.3-.775v-3.725c-.575.275-1.175.45-1.8.45-.875 0-1.3-.4-1.3-1.35V40.3h3.15v-3.825h-3.15V33.05h-4.75v3.425H280V40.3h1.6v5.5c0 3.225 1.7 4.475 4.55 4.475zm9.4 3.8c2.7 0 3.975-1.25 5.15-4.4l4.95-13.2h-4.875l-2.55 8.15-2.7-8.15h-4.975l5.3 13.275c-.3.425-.625.55-1.1.55-.525 0-1.325-.275-2.075-.725L291.2 52.9c1.25.7 2.675 1.175 4.35 1.175zM117.1 77.35c5 0 8.125-4.15 8.125-9.1v-.05c0-4.95-3.1-9.05-8.075-9.05s-8.125 4.15-8.125 9.1v.05c0 4.95 3.075 9.05 8.075 9.05zm.05-4.3c-1.95 0-3.25-2-3.25-4.8v-.05c0-2.8 1.275-4.75 3.2-4.75 1.925 0 3.25 2.025 3.25 4.8v.05c0 2.775-1.25 4.75-3.2 4.75zm23.4 3.95v-3.4h2.225v-3.625h-2.225v-10.6h-4.9l-9.075 10.8.8 3.425h8.475V77h4.7zm-4.7-7h-4.175l4.175-5.025V70zm16.825 1.275V67.1h-8.2v4.175h8.2zm10.1 6.075c5 0 8.125-4.15 8.125-9.1v-.05c0-4.95-3.1-9.05-8.075-9.05s-8.125 4.15-8.125 9.1v.05c0 4.95 3.075 9.05 8.075 9.05zm.05-4.3c-1.95 0-3.25-2-3.25-4.8v-.05c0-2.8 1.275-4.75 3.2-4.75 1.925 0 3.25 2.025 3.25 4.8v.05c0 2.775-1.25 4.75-3.2 4.75zm16.675 4.3c4.25 0 7.225-2.325 7.225-6.225v-.05c0-3.8-2.85-5.55-6-5.55-1.175 0-2 .25-2.8.625l.15-2.65h7.875v-4h-11.7l-.5 8.875 2.875 1.6c.825-.5 1.725-.875 2.8-.875 1.525 0 2.575.775 2.575 2.025v.05c0 1.25-.975 2.05-2.575 2.05-1.475 0-2.825-.7-4.25-1.9l-2.775 3.25c1.825 1.7 4 2.775 7.1 2.775zm9.05 3.775c3.125-.1 5.15-1.375 5.15-5.075v-3.975h-4.95v4.875h1.925c.05 1.35-.825 2.15-2.5 2.35l.375 1.825zm12.475-3.825c2 0 3.65-.625 4.8-1.775C207 74.35 207.55 72.8 207.55 70.6V59.5h-4.825v11.075c0 1.625-.775 2.45-2 2.45-1.075 0-1.875-.6-2.725-1.625l-3.125 2.95c1.225 1.675 3.1 2.95 6.15 2.95zm13 0c1.775 0 3.05-.675 3.975-1.7V77h4.7v-7.775c0-1.9-.425-3.3-1.45-4.3-1.075-1.075-2.725-1.65-5.15-1.65-2.325 0-3.95.425-5.475 1.05l.975 3.35c1.2-.475 2.3-.75 3.725-.75 1.825 0 2.7.8 2.7 2.2v.225c-.775-.275-2-.525-3.25-.525-3.175 0-5.3 1.45-5.3 4.25v.05c0 2.7 1.975 4.175 4.55 4.175zm1.7-2.975c-.975 0-1.675-.55-1.675-1.475v-.05c0-1 .8-1.675 2.175-1.675.7 0 1.375.15 1.85.35v.625c0 1.35-.975 2.225-2.35 2.225zM229.875 77v-7.325c0-1.475.85-2.275 2-2.275 1.125 0 1.9.8 1.9 2.275V77h4.75v-8.85c0-3.075-1.725-4.975-4.6-4.975-1.925 0-3.175 1.075-4.05 2.2v-1.9h-4.75V77h4.75zm10.7 4.125c3.125-.1 5.15-1.375 5.15-5.075v-3.975h-4.95v4.875h1.925c.05 1.35-.825 2.15-2.5 2.35l.375 1.825zm20.9-4.125v-3.95h-7.225l3-2.1c2.6-1.875 4.05-3.325 4.05-6.125v-.05c0-3.3-2.625-5.575-6.45-5.575-3.4 0-5.25 1.325-7.125 3.75L251 65.675c1.375-1.575 2.3-2.25 3.475-2.25 1.175 0 1.95.675 1.95 1.775 0 1.05-.625 1.875-2.25 3.15l-6.55 5V77h13.85zm10.025.35c5 0 8.125-4.15 8.125-9.1v-.05c0-4.95-3.1-9.05-8.075-9.05s-8.125 4.15-8.125 9.1v.05c0 4.95 3.075 9.05 8.075 9.05zm.05-4.3c-1.95 0-3.25-2-3.25-4.8v-.05c0-2.8 1.275-4.75 3.2-4.75 1.925 0 3.25 2.025 3.25 4.8v.05c0 2.775-1.25 4.75-3.2 4.75zM295.325 77v-3.95H288.1l3-2.1c2.6-1.875 4.05-3.325 4.05-6.125v-.05c0-3.3-2.625-5.575-6.45-5.575-3.4 0-5.25 1.325-7.125 3.75l3.275 2.725c1.375-1.575 2.3-2.25 3.475-2.25 1.175 0 1.95.675 1.95 1.775 0 1.05-.625 1.875-2.25 3.15l-6.55 5V77h13.85zm10.025.35c5 0 8.125-4.15 8.125-9.1v-.05c0-4.95-3.1-9.05-8.075-9.05s-8.125 4.15-8.125 9.1v.05c0 4.95 3.075 9.05 8.075 9.05zm.05-4.3c-1.95 0-3.25-2-3.25-4.8v-.05c0-2.8 1.275-4.75 3.2-4.75 1.925 0 3.25 2.025 3.25 4.8v.05c0 2.775-1.25 4.75-3.2 4.75z"/>
        <path stroke="#FFF" stroke-width="2" d="M90 0v81"/>
        <g stroke="#FFF" stroke-width="2">
            <path d="M62 5v18M71 14H53M55.636 7.636l12.728 12.728M55.636 20.364L68.364 7.636"/>
        </g>
    </g>
</svg>
