<svg xmlns="http://www.w3.org/2000/svg" width="258" height="109" viewBox="0 0 258 109">
    <g fill="none" fill-rule="evenodd">
        <path fill="#FFF" fill-rule="nonzero" d="M11.6 37V17l8.9 13.6h.2l8.95-13.7V37h9.65V2H29.05L20.7 15.55 12.35 2H2.1v35h9.5zm41.1.6c3.55 0 6.1-1.35 7.95-3.4V37h9.4V21.45c0-3.8-.85-6.6-2.9-8.6-2.15-2.15-5.45-3.3-10.3-3.3-4.65 0-7.9.85-10.95 2.1l1.95 6.7c2.4-.95 4.6-1.5 7.45-1.5 3.65 0 5.4 1.6 5.4 4.4v.45c-1.55-.55-4-1.05-6.5-1.05-6.35 0-10.6 2.9-10.6 8.5v.1c0 5.4 3.95 8.35 9.1 8.35zm3.4-5.95c-1.95 0-3.35-1.1-3.35-2.95v-.1c0-2 1.6-3.35 4.35-3.35 1.4 0 2.75.3 3.7.7v1.25c0 2.7-1.95 4.45-4.7 4.45zm29.55 5.95c6.6 0 11.05-3.1 11.05-9.05v-.1c0-5.25-4.25-7.1-9.6-8.6-2.85-.85-4.4-1.35-4.4-2.4v-.1c0-.75.75-1.3 2.2-1.3 2.15 0 5.2.95 8 2.5l3.25-6c-3.1-2-7.2-3.15-11.15-3.15-6.25 0-10.85 3.2-10.85 8.95v.1c0 5.45 4.25 7.25 9.6 8.65 2.85.8 4.35 1.25 4.35 2.3v.1c0 .95-.75 1.45-2.4 1.45-2.8 0-6.2-1.05-9.3-3.1l-3.55 5.75c3.75 2.7 8.25 4 12.8 4zm24.45-.6V22.35c0-2.95 1.7-4.55 4-4.55 2.25 0 3.8 1.6 3.8 4.55V37h9.5V19.3c0-6.15-3.45-9.95-9.2-9.95-3.85 0-6.35 2.05-8.1 4.3V.5h-9.5V37h9.5zm38.05-11.45V17.2h-16.4v8.35h16.4zM169 37.65c9.95 0 16.4-4.95 16.4-16.25V2h-9.85v19.7c0 4.9-2.55 7.2-6.45 7.2-3.9 0-6.45-2.4-6.45-7.45V2h-9.85v19.65c0 10.95 6.25 16 16.2 16zM200.1 45V33.7c1.75 2.05 4.15 3.9 8.25 3.9 6.4 0 11.95-5.35 11.95-14.15v-.1c0-8.65-5.55-14-12-14-4.05 0-6.35 1.95-8.2 4.2v-3.6h-9.5V45h9.5zm5.3-15.35c-3.05 0-5.5-2.55-5.5-6.15v-.1c0-3.55 2.45-6.1 5.5-6.1 3.1 0 5.55 2.55 5.55 6.1v.1c0 3.65-2.45 6.15-5.55 6.15zM14.75 93.6c8.4 0 14.4-4.05 14.4-10.3v-.1c0-4.35-2.45-6.7-6-8.35 2.7-1.5 4.8-3.8 4.8-7.6v-.1c0-5.6-5.35-9.75-13.2-9.75s-13.2 4.15-13.2 9.75v.1c0 3.8 2.1 6.1 4.8 7.6-3.75 1.6-6 4.15-6 8.4v.1c0 6.1 6 10.25 14.4 10.25zm0-21.4c-2.6 0-4.3-1.65-4.3-3.85v-.1c0-1.95 1.65-3.65 4.3-3.65s4.3 1.75 4.3 3.7v.1c0 2.2-1.7 3.8-4.3 3.8zm0 14.15c-3.25 0-5.05-1.85-5.05-3.95v-.1c0-2.25 2.1-3.8 5.05-3.8 2.95 0 5.05 1.55 5.05 3.8v.1c0 2.1-1.8 3.95-5.05 3.95zm29.05 7.2c2.65 0 4.9-.6 6.6-1.55v-7.45c-1.15.55-2.35.9-3.6.9-1.75 0-2.6-.8-2.6-2.7V73.6h6.3v-7.65h-6.3V59.1h-9.5v6.85h-3.2v7.65h3.2v11c0 6.45 3.4 8.95 9.1 8.95zM64.1 93V78.35c0-2.95 1.7-4.55 4-4.55 2.25 0 3.8 1.6 3.8 4.55V93h9.5V75.3c0-6.15-3.45-9.95-9.2-9.95-3.85 0-6.35 2.05-8.1 4.3V56.5h-9.5V93h9.5zM204.023 96.05c.264-.092.332-.326.205-.695l-.218-.634a.492.492 0 0 0-.24-.298c-.166-.387-.322-.81-.475-1.254a42.422 42.422 0 0 1-1.067-3.714c.47-.353.797-.571.974-.674.098.04.224.039.36.003l.712-.605c.147-.125.196-.29.128-.488a.538.538 0 0 0-.173-.226.337.337 0 0 0-.254-.061c-.18.062-.418.197-.714.383-.83.54-2.212 1.407-4.142 2.622-.188.128-.247.296-.169.523.085.246.231.333.449.258.409-.194 1.107-.624 2.1-1.304.39 1.504.692 2.532.887 3.1.39 1.134.76 2.086 1.129 2.847.097.22.271.298.508.217zm6.484-2.424c.114-.039.138-.153.095-.339-.113-.236-.21-.425-.287-.588-.21-.425-.382-.832-.519-1.229l-.03-.088c-.025-.08-.062-.2-.104-.363-.062-.242-.089-.381-.099-.41a.772.772 0 0 0-.297-.373.47.47 0 0 0-.412-.06c-.17.06-.464.404-.863 1.028-.39.588-.635 1.043-.755 1.37-.195-.906-.312-1.49-.35-1.752l-.227-1.582c-.094-.58-.149-1.017-.186-1.31-.044-.281-.068-.442-.084-.49a.72.72 0 0 0-.279-.348c-.13-.103-.257-.133-.38-.091-.152.052-.2.248-.15.58l.49 3.205c.13.929.36 1.843.673 2.751.02.057.055.16.114.3l.087.255a.67.67 0 0 0 .276.339.512.512 0 0 0 .427.043c.076-.026.125-.16.167-.407.027-.168.04-.342.055-.516.093-.529.456-1.257 1.088-2.183l.442 1.128c.35.894.711 1.267 1.108 1.13zm.443-7.376c.208-.071.247-.296.117-.674-.137-.397-.37-.55-.704-.477-.232.186-.316.373-.247.571.136.398.353.598.66.598a.544.544 0 0 0 .174-.018zm1.513 6.576c.057-.02.104-.067.141-.144.037-.076.059-.136.04-.193a.591.591 0 0 0-.336-.36c-.177-.574-.294-1.253-.36-2.056l-.056-.688c-.137-.397-.414-.524-.83-.381-.125.128-.155.254-.113.377.013.038.049.11.107.217.112 1.157.237 1.918.364 2.286.267.776.608 1.092 1.043.942zm2.688-.64c.416-.143.715-.352.899-.616.155-.255.194-.511.1-.785-.098-.284-.374-.686-.806-1.204-.439-.504-.672-.815-.712-.929-.061-.18.029-.316.275-.4.057-.02.145-.04.258-.08.12-.02.205-.049.253-.065a.362.362 0 0 0 .22-.192.339.339 0 0 0 .015-.291.525.525 0 0 0-.131-.198c-.136-.27-.421-.331-.856-.181-.284.097-.434.244-.476.428-.39.314-.503.691-.353 1.126.091.265.351.652.773 1.14.423.49.67.807.715.94.078.226-.047.386-.359.493-.113.039-.277.085-.476.122-.196.046-.306.063-.325.07-.085.029-.142.111-.166.225a.498.498 0 0 0 0 .339c.092.265.471.292 1.152.058zm5.084-9.133c.208-.071.247-.296.117-.674-.137-.397-.37-.55-.704-.477-.232.185-.316.373-.247.571.136.398.353.598.66.598a.544.544 0 0 0 .174-.018zm1.513 6.576c.057-.02.104-.067.141-.144.037-.076.059-.136.04-.193a.591.591 0 0 0-.336-.36c-.177-.574-.294-1.253-.36-2.056l-.056-.688c-.137-.398-.414-.524-.83-.381-.125.127-.155.254-.113.377.013.038.049.11.107.217.112 1.157.237 1.918.364 2.286.267.776.608 1.092 1.043.942zm2.688-.64c.416-.143.715-.352.899-.616.155-.255.194-.511.1-.785-.098-.284-.374-.686-.806-1.204-.439-.504-.672-.815-.712-.929-.061-.18.029-.316.275-.4.057-.02.145-.04.258-.08.12-.02.205-.049.253-.065a.362.362 0 0 0 .22-.192.339.339 0 0 0 .015-.291.525.525 0 0 0-.131-.198c-.136-.27-.421-.331-.856-.181-.284.097-.434.244-.476.428-.39.314-.503.691-.353 1.126.091.265.351.651.773 1.14.423.49.67.807.715.94.078.226-.047.385-.359.493-.113.039-.277.085-.476.122-.196.046-.306.063-.325.07-.085.028-.142.111-.166.225a.498.498 0 0 0 0 .339c.092.264.471.292 1.152.058zm-16.684 19.335c.605-.208 1.044-.655 1.331-1.325.29.471.566.661.84.567.095-.033.154-.106.191-.214a.516.516 0 0 0 .006-.351c-.013-.038-.115-.15-.29-.354-.346-.39-.63-.905-.851-1.548a.998.998 0 0 0-.241-.393c.847-.334 1.22-.663 1.106-.994-.087-.256-.265-.342-.511-.258-.02.007-.117.061-.315.161-.428.232-.727.378-.897.436a4.299 4.299 0 0 1-.71.15.416.416 0 0 0-.241.22.374.374 0 0 0-.029.317c.098.283.424.34.982.18a.359.359 0 0 0-.016.26c.013.037.039.113.097.22.039.113.075.185.088.223.156.454.128.866-.058 1.247-.177.346-.408.564-.692.661a1.42 1.42 0 0 1-1.254-.14c-.42-.235-.718-.64-.913-1.208-.339-.983-.301-2.011.125-3.078.416-1.063 1.082-1.8 1.995-2.22.259-.11.352-.301.267-.547-.091-.265-.282-.358-.547-.267-1.115.384-1.93 1.246-2.44 2.586-.513 1.34-.55 2.643-.12 3.89.24.7.635 1.231 1.198 1.577.591.367 1.218.437 1.9.202zm5.29-2.022c.454-.156.77-.498.932-1.04.153-.54.131-1.124-.09-1.767a1.854 1.854 0 0 0-.66-.905 1.797 1.797 0 0 0-1.035-.33 1.798 1.798 0 0 0-.246.02c-.076.027-.145.103-.232.218-.106.121-.19.214-.257.268-.266.271-.433.646-.485 1.109-.066.424-.017.84.123 1.247.166.483.425.837.798 1.058.369.212.755.259 1.152.122zm-.283-.791c-.19.065-.37.032-.545-.109a1.044 1.044 0 0 1-.385-.533 1.775 1.775 0 0 1-.075-.926c.066-.362.228-.597.493-.688a.75.75 0 0 0 .398-.042c.218.051.404.284.54.68.111.322.118.648.042.98-.091.35-.241.56-.468.638zm2.696-1.415a.32.32 0 0 0 .157-.128c.184-.233.631-.471 1.34-.715.322-.111.65-.203.984-.276.095-.032.16-.118.197-.258a.661.661 0 0 0 .006-.383c-.043-.122-.126-.179-.24-.171-.302.04-.69.143-1.173.309-.378.13-.718.279-1.023.437-.083-.056-.162-.071-.238-.045-.113.039-.21.157-.297.335-.121.232-.14.45-.073.649a.34.34 0 0 0 .151.191c.064.063.134.081.21.055zm5.198-.172c.094-.032.163-.109.21-.22.046-.11.064-.212.031-.307-.013-.038-.08-.11-.182-.223a.653.653 0 0 1-.152-.254c-.084-.246-.22-.792-.38-1.625l-.64-3.121c-.146-.67-.249-1.12-.327-1.348-.097-.283-.282-.389-.528-.304-.189.065-.293.376-.31.91-.005.478.043.863.144 1.156a.43.43 0 0 0 .357.3l.473 2.387c.16.801.324 1.432.48 1.886.215.624.483.88.824.763zm2.676-.213c.17-.058.242-.188.224-.394-.063-.613-.134-1.033-.215-1.269a.553.553 0 0 0-.148-.214l-.085.03c-.27-.848-.538-2.025-.78-3.528.433.4.911.775 1.427 1.105.248.169.767.476 1.559.934.677.4 1.033.606 1.084.63.178.088.299.13.378.114.12.043.206.046.272.023.255-.088.345-.257.254-.521a5.858 5.858 0 0 0-.1-.199c-.412-.767-.645-1.258-.716-1.466-.489-1.419-.758-2.785-.79-4.107a1.67 1.67 0 0 0-.039-.357.413.413 0 0 0-.204-.225.385.385 0 0 0-.298-.035c-.17.058-.257.204-.268.42-.03.496.04 1.191.214 2.094.15.837.321 1.518.507 2.057.081.236.211.583.412 1.043-1.914-1.076-3.217-2.034-3.89-2.88-.007-.083-.004-.137-.017-.175a.407.407 0 0 0-.534-.26c-.085.03-.16.119-.238.262-.074.152-.09.263-.06.348a.23.23 0 0 0 .084.12c.316 2.27.704 4.072 1.16 5.396l.273.794c.033.095.1.167.224.22.114.055.215.073.31.04zm5.193-4.114a.32.32 0 0 0 .157-.128c.184-.233.631-.472 1.34-.716.322-.11.65-.202.984-.275.095-.033.16-.119.197-.258a.661.661 0 0 0 .006-.383c-.043-.123-.125-.179-.24-.172-.302.041-.69.143-1.173.31-.378.13-.718.278-1.023.436-.083-.056-.162-.07-.238-.045-.113.04-.21.157-.297.335-.12.232-.14.45-.073.65a.34.34 0 0 0 .151.19c.064.063.134.082.21.056zm11.412-1.476a.453.453 0 0 0 .24-.22.497.497 0 0 0 .026-.327c-.006-.018-.093-.116-.237-.288-.153-.17-.312-.263-.464-.274-.325-.269-.694-.787-1.11-1.532-.17-.312-.49-.931-.935-1.857-.432-.887-.828-1.576-1.213-2.078-.134-.176-.293-.238-.463-.18a.358.358 0 0 0-.256.3c-.198 1.084-.255 2.362-.168 3.845-.847-.586-1.772-1.675-2.784-3.262-.131-.198-.293-.269-.482-.204-.18.062-.277.18-.294.345a10.7 10.7 0 0 0-.061 1.174.538.538 0 0 0-.285.002c-.255.088-.332.263-.248.509.026.075.059.17.107.28.046.133.088.224.11.29.118.34.227.779.352 1.328.169.735.284 1.193.349 1.382.124.359.266.68.44.938.234.342.45.48.64.414.226-.078.274-.306.163-.69a22.07 22.07 0 0 1-.539-2.026 16.967 16.967 0 0 1-.327-2.425c.309.528.741 1.077 1.297 1.647.585.624 1.11 1.045 1.584 1.284.236.13.426.16.567.112.19-.066.28-.234.245-.518-.1-.939-.121-2.042-.064-3.289.714 1.49 1.146 2.377 1.31 2.67.58 1.069 1.141 1.838 1.658 2.295.338.306.624.43.842.355zm3.39-2.563c.832-.287 1.453-.818 1.844-1.587.39-.77.436-1.589.13-2.478-.306-.888-.809-1.55-1.5-1.99-.734-.445-1.516-.535-2.349-.249-.245.085-.409.163-.497.214a.532.532 0 0 0-.242.464c-.595.607-1.016 1.228-1.256 1.882-.28.752-.295 1.476-.061 2.157.254.737.794 1.26 1.628 1.565a3.296 3.296 0 0 0 2.303.022zm-.189-.856c-.624.215-1.209.237-1.77.05-.625-.187-1.037-.585-1.242-1.18-.196-.568-.072-1.224.372-1.99.41-.713.902-1.22 1.481-1.504a.423.423 0 0 0 .173-.113c1.144-.055 1.947.557 2.397 1.862.208.605.176 1.187-.09 1.733-.274.56-.716.934-1.321 1.142zm7.015-1.495c.832-.286 1.453-.818 1.844-1.587s.437-1.588.13-2.477c-.305-.889-.808-1.551-1.499-1.99-.735-.445-1.517-.536-2.349-.25-.246.085-.41.163-.497.214a.532.532 0 0 0-.243.465c-.594.606-1.015 1.227-1.255 1.88-.28.753-.296 1.478-.061 2.158.254.738.793 1.26 1.628 1.565a3.296 3.296 0 0 0 2.302.022zm-.188-.855c-.624.215-1.21.236-1.77.049-.626-.187-1.038-.584-1.243-1.18-.195-.567-.072-1.223.373-1.99.41-.712.902-1.22 1.48-1.504a.423.423 0 0 0 .174-.112c1.144-.056 1.947.556 2.396 1.861.209.605.176 1.187-.09 1.734-.273.56-.715.934-1.32 1.142zm5.915-.82c.794-.274 1.325-.668 1.588-1.193a.697.697 0 0 0 .03-.528c-.085-.246-.26-.323-.505-.239-.19.065-.283.193-.272.38a2.691 2.691 0 0 1-1.112.731c-.378.13-.663.133-.857 0-.2-.122-.384-.44-.553-.931-.326-.946-.506-2.513-.53-4.704a1.132 1.132 0 0 0-.039-.357c-.084-.246-.25-.326-.495-.242-.19.065-.298.272-.32.607-.048.599.008 1.468.146 2.605.14 1.115.297 1.907.46 2.38.481 1.4 1.296 1.89 2.459 1.49z"/>
        <path fill="#FFF" stroke="#FFF" d="M193.949 65.938c3.446-.712 7.4-1.524 6.514-2.466-1.167-1.24-10.23-3.174-20.495-2.394-4.103.311-4.973 1.047-6.224 1.6-.09.04.264-.08.232-.121-.043-.057-.257-.109-.446-.159-2.607-.688-5.058-1.39-7.938-2.054a52.9 52.9 0 0 0-4.546-.823c-2.87-.401-5.868-.79-9.219-1.1a95.949 95.949 0 0 0-7.015-.398c-2.342-.042-5.032-.045-7.011.145-9.293.891-14.016 3.006-14.384 4.552-.082.343.455.685.895 1.022.238.182 1.884.382 1.133.531-.62.123-1.858-.138-2.816-.197a87.424 87.424 0 0 0-2.232-.115 266.656 266.656 0 0 0-5.153-.154c-10.139-.175-15.39 1.347-16.702 2.666-1.551 1.558.2 3.095 4.35 4.522 1.293.445 3.349.833 5.14 1.238.34.077.77.146 1.241.205.851.108 2.134.154 2.708.296.227.056-.892.027-1.26.063-2.198.22-4.449.434-6.394.7-1.12.153-1.878.356-2.703.546-.917.21-1.798.427-2.513.654-.725.231-1.39.469-1.79.716-3.679 2.272-2.394 4.555-.203 6.843.365.38.78.763 1.585 1.13 3.466 1.574 4.614 3.198 16.485 3.821 10.382.545 14.72-.648 18.548-1.723.203-.057.201-.23.48-.18.068.012 7.995 1.978 11.658 2.191 3.423.2 6.888.418 10.539.486 3.274.062 6.602-.042 9.876-.103 2.749-.051 7.576-.738 8.019-.858 5.504-1.484 6.42-3.329 6.229-4.965-.25-2.136.815-2.141-4.112-3.305-.049-.012-.335-.022-.246-.019 7.767.267 22.78.827 26.636-.747 1.827-.745 1.439-1.84.774-2.517-1.263-1.29-3.649-3.241-10.366-4.295-.727-.114-3.096-.213-2.326-.32 1.22-.172 3.394-.002 5.031-.06 2.105-.072 4.14-.19 6.095-.327 3.108-.217 4.473-.702 4.841-1.178.89-1.153-2.703-1.932-7.452-2.8l-5.463-.55z"/>
        <path stroke="#FFF" stroke-width=".75" d="M196 96c-8.465-2.926-5.147-.577-10-7"/>
    </g>
</svg>
