<svg xmlns="http://www.w3.org/2000/svg" width="258" height="109" viewBox="0 0 258 109">
    <g fill="none" fill-rule="evenodd">
        <text fill="#FFF" font-family="Gotham-Black, Gotham" font-size="50" font-weight="700" transform="translate(-1 -10)">
            <tspan x="0" y="47">Mash-Up</tspan> <tspan x="0" y="103">8th</tspan>
        </text>
        <text fill="#FFF" font-family="HanziPenTC-W5, HanziPen TC" font-size="10" font-weight="bold" transform="rotate(-19 354.515 -222.547)">
            <tspan x="105.218" y="30.302">This is</tspan> <tspan x="105.218" y="43.302">Go-IN-MOOL</tspan>
        </text>
        <path fill="#FFF" stroke="#FFF" d="M193.949 65.938c3.446-.712 7.4-1.524 6.514-2.466-1.167-1.24-10.23-3.174-20.495-2.394-4.103.311-4.973 1.047-6.224 1.6-.09.04.264-.08.232-.121-.043-.057-.257-.109-.446-.159-2.607-.688-5.058-1.39-7.938-2.054a52.9 52.9 0 0 0-4.546-.823c-2.87-.401-5.868-.79-9.219-1.1a95.949 95.949 0 0 0-7.015-.398c-2.342-.042-5.032-.045-7.011.145-9.293.891-14.016 3.006-14.384 4.552-.082.343.455.685.895 1.022.238.182 1.884.382 1.133.531-.62.123-1.858-.138-2.816-.197a87.424 87.424 0 0 0-2.232-.115 266.656 266.656 0 0 0-5.153-.154c-10.139-.175-15.39 1.347-16.702 2.666-1.551 1.558.2 3.095 4.35 4.522 1.293.445 3.349.833 5.14 1.238.34.077.77.146 1.241.205.851.108 2.134.154 2.708.296.227.056-.892.027-1.26.063-2.198.22-4.449.434-6.394.7-1.12.153-1.878.356-2.703.546-.917.21-1.798.427-2.513.654-.725.231-1.39.469-1.79.716-3.679 2.272-2.394 4.555-.203 6.843.365.38.78.763 1.585 1.13 3.466 1.574 4.614 3.198 16.485 3.821 10.382.545 14.72-.648 18.548-1.723.203-.057.201-.23.48-.18.068.012 7.995 1.978 11.658 2.191 3.423.2 6.888.418 10.539.486 3.274.062 6.602-.042 9.876-.103 2.749-.051 7.576-.738 8.019-.858 5.504-1.484 6.42-3.329 6.229-4.965-.25-2.136.815-2.141-4.112-3.305-.049-.012-.335-.022-.246-.019 7.767.267 22.78.827 26.636-.747 1.827-.745 1.439-1.84.774-2.517-1.263-1.29-3.649-3.241-10.366-4.295-.727-.114-3.096-.213-2.326-.32 1.22-.172 3.394-.002 5.031-.06 2.105-.072 4.14-.19 6.095-.327 3.108-.217 4.473-.702 4.841-1.178.89-1.153-2.703-1.932-7.452-2.8l-5.463-.55z"/>
        <path stroke="#FFF" stroke-width=".75" d="M196 96c-8.465-2.926-5.147-.577-10-7"/>
    </g>
</svg>
